<svg width="218" height="145" viewBox="0 0 218 145" fill="none" xmlns="http://www.w3.org/2000/svg">
<g clip-path="url(#clip0_2507_3678)">
<path d="M212.889 68.3458C213.26 68.2872 213.608 68.5408 213.667 68.9119L214.624 74.9596C214.683 75.3309 214.43 75.679 214.059 75.7376C213.688 75.7962 213.339 75.5431 213.28 75.172L212.429 69.7963L207.052 70.6455C206.68 70.7041 206.332 70.4503 206.273 70.0793C206.214 69.7082 206.468 69.36 206.839 69.3014L212.889 68.3458ZM15.0999 34.4642C15.0351 34.094 15.2827 33.7416 15.6529 33.6769C16.0231 33.6122 16.3758 33.8598 16.4406 34.2299L15.0999 34.4642ZM213.546 69.4181C179.984 115.573 132.925 121.656 93.0218 108.804C73.0831 102.382 54.9171 91.2321 41.0831 77.9854C27.2565 64.7457 17.71 49.3651 15.0999 34.4642L16.4406 34.2299C18.9848 48.7546 28.3292 63.889 42.0245 77.0029C55.7123 90.1096 73.6993 101.151 93.4389 107.509C132.893 120.217 179.292 114.21 212.445 68.6176L213.546 69.4181Z" fill="#2D9DA6" stroke="#2D9DA6"/>
</g>
<defs>
<clipPath id="clip0_2507_3678">
<rect width="202" height="80" fill="white" transform="matrix(0.938823 0.344399 0.344399 -0.938823 0 75.1094)"/>
</clipPath>
</defs>
</svg>
