<svg width="142" height="66" viewBox="0 0 142 66" fill="none" xmlns="http://www.w3.org/2000/svg">
<path d="M138.224 64.9307C138.453 65.078 138.741 64.9828 138.868 64.7185L140.94 60.4108C141.067 60.1465 140.985 59.8129 140.757 59.6656C140.529 59.5183 140.241 59.613 140.114 59.8774L138.272 63.7064L134.966 61.5725C134.738 61.4252 134.45 61.5203 134.323 61.7846C134.196 62.049 134.278 62.3825 134.506 62.5298L138.224 64.9307ZM1.06373 35.6845C0.932845 35.9464 1.01001 36.2816 1.23608 36.4332C1.46216 36.5849 1.75153 36.4955 1.88242 36.2336L1.06373 35.6845ZM138.91 64.3021C128.059 20.0897 98.8109 2.43532 69.6989 1.08473C55.1523 0.409865 40.6308 3.80228 28.4339 9.98183C16.2435 16.158 6.33329 25.1405 1.06373 35.6845L1.88242 36.2336C7.01892 25.9558 16.7383 17.1034 28.813 10.9859C40.8809 4.87174 55.2598 1.51161 69.661 2.17973C98.445 3.51511 127.281 20.9288 138 64.6019L138.91 64.3021Z" fill="#EFA929" stroke="#EFA929"/>
</svg>
