<svg width="192" height="24" viewBox="0 0 192 24" fill="none" xmlns="http://www.w3.org/2000/svg">
<path d="M2 13.5C1.17157 13.5 0.5 12.8284 0.5 12C0.5 11.1716 1.17157 10.5 2 10.5V13.5ZM191.061 10.9393C191.646 11.5251 191.646 12.4749 191.061 13.0607L181.515 22.6066C180.929 23.1924 179.979 23.1924 179.393 22.6066C178.808 22.0208 178.808 21.0711 179.393 20.4853L187.879 12L179.393 3.51472C178.808 2.92893 178.808 1.97919 179.393 1.3934C179.979 0.807611 180.929 0.807611 181.515 1.3934L191.061 10.9393ZM144.49 13.2677L145.462 12.1254L144.49 13.2677ZM143 12L143.972 10.8577L143 12ZM2 10.5H16.7216V13.5H2V10.5ZM25.1401 12.2167L30.6293 14.5525L29.4546 17.313L23.9654 14.9771L25.1401 12.2167ZM46.5382 12.1254L48.0278 10.8577L49.9722 13.1423L48.4826 14.41L46.5382 12.1254ZM143.972 10.8577L145.462 12.1254L143.517 14.41L142.028 13.1423L143.972 10.8577ZM161.371 14.5525L166.86 12.2167L168.035 14.9771L162.545 17.313L161.371 14.5525ZM175.278 10.5H190V13.5H175.278V10.5ZM166.86 12.2167C169.522 11.0839 172.385 10.5 175.278 10.5V13.5C172.789 13.5 170.325 14.0024 168.035 14.9771L166.86 12.2167ZM145.462 12.1254C149.877 15.8829 156.036 16.8226 161.371 14.5525L162.545 17.313C156.165 20.0281 148.798 18.9042 143.517 14.41L145.462 12.1254ZM123.228 10.8577C129.207 5.76941 137.993 5.76941 143.972 10.8577L142.028 13.1423C137.17 9.00787 130.03 9.00787 125.172 13.1423L123.228 10.8577ZM106.372 10.8577C111.23 14.9921 118.37 14.9921 123.228 10.8577L125.172 13.1423C119.193 18.2306 110.407 18.2306 104.428 13.1423L106.372 10.8577ZM85.6278 10.8577C91.6065 5.76941 100.393 5.76941 106.372 10.8577L104.428 13.1423C99.5699 9.00787 92.4301 9.00787 87.5722 13.1423L85.6278 10.8577ZM68.7722 10.8577C73.6301 14.9921 80.7699 14.9921 85.6278 10.8577L87.5722 13.1423C81.5935 18.2306 72.8065 18.2306 66.8278 13.1423L68.7722 10.8577ZM48.0278 10.8577C54.0065 5.76942 62.7935 5.76941 68.7722 10.8577L66.8278 13.1423C61.9699 9.00788 54.8301 9.00788 49.9722 13.1423L48.0278 10.8577ZM30.6293 14.5525C35.9639 16.8226 42.1232 15.8829 46.5382 12.1254L48.4826 14.41C43.202 18.9042 35.8351 20.0281 29.4546 17.313L30.6293 14.5525ZM16.7216 10.5C19.6147 10.5 22.478 11.0839 25.1401 12.2167L23.9654 14.9771C21.6748 14.0024 19.211 13.5 16.7216 13.5V10.5Z" fill="#2D9DA6"/>
</svg>
