<svg width="122" height="82" viewBox="0 0 122 82" fill="none" xmlns="http://www.w3.org/2000/svg">
<path d="M120.89 16.7266C121.037 16.8912 121.037 17.1579 120.89 17.3225L118.507 20.0037C118.36 20.1682 118.123 20.1682 117.977 20.0037C117.831 19.8392 117.831 19.5724 117.977 19.4079L120.096 17.0246L117.977 14.6412C117.831 14.4767 117.831 14.2099 117.977 14.0454C118.123 13.8808 118.36 13.8808 118.507 14.0454L120.89 16.7266ZM1.37456 81C1.16769 81 1 80.8116 1 80.5787C1 80.3461 1.1677 80.1574 1.37457 80.1574L1.37456 81ZM59.6468 1.51748L59.7732 1.12098L59.6468 1.51748ZM120.625 17.4459C92.8776 17.4456 76.6393 13.1846 67.7936 9.08996C63.3753 7.04476 60.7822 5.03211 59.5239 3.59414C59.2087 3.23358 58.9699 2.90106 58.8075 2.6052C58.6507 2.32045 58.5402 2.02567 58.5378 1.75078C58.5366 1.60538 58.5662 1.44744 58.6531 1.30788C58.7415 1.16565 58.8665 1.07949 58.9968 1.03657C59.2372 0.957516 59.514 1.01625 59.7732 1.12098L59.52 1.91398C59.4214 1.87416 59.3444 1.85407 59.2881 1.84639C59.23 1.83849 59.2069 1.84549 59.2072 1.84531C59.2126 1.84355 59.2423 1.83043 59.2668 1.79095C59.2896 1.75414 59.2869 1.72867 59.2869 1.74327C59.2872 1.78841 59.3136 1.92382 59.4445 2.16206C59.5695 2.38919 59.7687 2.67246 60.0579 3.00312C61.2187 4.33003 63.7112 6.28912 68.0786 8.31073C76.8047 12.3498 92.9375 16.603 120.625 16.6033V17.4459ZM59.7732 1.12098C61.7962 1.9385 63.7795 3.82725 65.5292 6.45259C67.2824 9.08346 68.8202 12.4828 69.943 16.3719C72.188 24.149 72.7846 33.9276 70.0806 43.5146C64.6563 62.7462 46.0286 81.0007 1.37456 81L1.37457 80.1574C45.8563 80.158 64.0807 62.0003 69.3665 43.2598C72.0175 33.8612 71.4338 24.2639 69.2305 16.6322C68.1292 12.8168 66.6259 9.50346 64.9296 6.95796C63.2297 4.40691 61.3551 2.6556 59.52 1.91398L59.7732 1.12098Z" fill="#EFA929" stroke="#EFA929"/>
</svg>
