<svg width="360" height="146" viewBox="0 0 360 146" fill="none" xmlns="http://www.w3.org/2000/svg">
<path d="M0 8C0 3.58173 3.58172 0 8 0H352C356.418 0 360 3.58172 360 8V138C360 142.418 356.418 146 352 146H8C3.58172 146 0 142.418 0 138V8Z" fill="white"/>
<path d="M240.406 65.7136C240.406 63.0198 242.59 60.8359 245.284 60.8359H259.935C262.629 60.8359 264.813 63.0198 264.813 65.7136V80.2916C264.813 82.9855 262.629 85.1693 259.935 85.1693H245.284C242.59 85.1693 240.406 82.9855 240.406 80.2916V65.7136Z" fill="#2D70AE"/>
<rect x="259.93" y="55.9688" width="9.76271" height="9.73333" rx="4.86667" fill="#EFA929"/>
<path d="M266.67 60.4414H265.698V58.2516C265.698 57.7407 265.412 57.6373 265.063 58.0205L264.812 58.2972L262.683 60.6391C262.39 60.9585 262.513 61.22 262.953 61.22H263.925V63.4098C263.925 63.9208 264.211 64.0242 264.56 63.641L264.812 63.3642L266.941 61.0223C267.233 60.703 267.11 60.4414 266.67 60.4414Z" fill="white"/>
<g clip-path="url(#clip0_3799_4593)">
<path d="M256.97 72.154C256.248 72.154 255.662 71.5701 255.662 70.8504C255.662 70.1308 256.248 69.5469 256.97 69.5469C257.691 69.5469 258.277 70.1308 258.277 70.8504C258.277 71.5701 257.691 72.154 256.97 72.154ZM252.611 72.154C251.889 72.154 251.304 71.5701 251.304 70.8504C251.304 70.1308 251.889 69.5469 252.611 69.5469C253.333 69.5469 253.919 70.1308 253.919 70.8504C253.919 71.5701 253.333 72.154 252.611 72.154ZM248.253 69.5469C248.975 69.5469 249.56 70.1308 249.56 70.8504C249.56 71.5701 248.975 72.154 248.253 72.154C247.531 72.154 246.945 71.5701 246.945 70.8504C246.945 70.1308 247.531 69.5469 248.253 69.5469Z" fill="white"/>
<path opacity="0.4" d="M256.97 76.4978C256.248 76.4978 255.662 75.9139 255.662 75.1942C255.662 74.4745 256.248 73.8906 256.97 73.8906C257.691 73.8906 258.277 74.4745 258.277 75.1942C258.277 75.9139 257.691 76.4978 256.97 76.4978ZM252.611 76.4978C251.889 76.4978 251.304 75.9139 251.304 75.1942C251.304 74.4745 251.889 73.8906 252.611 73.8906C253.333 73.8906 253.919 74.4745 253.919 75.1942C253.919 75.9139 253.333 76.4978 252.611 76.4978ZM248.253 73.8906C248.975 73.8906 249.56 74.4745 249.56 75.1942C249.56 75.9139 248.975 76.4978 248.253 76.4978C247.531 76.4978 246.945 75.9139 246.945 75.1942C246.945 74.4745 247.531 73.8906 248.253 73.8906Z" fill="white"/>
</g>
<path d="M275.923 71.769C275.923 72.358 275.582 72.7762 274.822 72.7762H273.747V70.7873H274.822C275.582 70.7873 275.923 71.1715 275.923 71.769ZM272.773 69.9935V75.926H273.747V73.553H274.489L275.855 75.926H277.016L275.548 73.4676C276.546 73.2201 276.922 72.4689 276.922 71.769C276.922 70.8044 276.231 69.9935 274.822 69.9935H272.773Z" fill="#1F1F1F"/>
<path d="M280.147 71.9653C280.873 71.9653 281.445 72.4262 281.462 73.1518H278.858C278.961 72.4092 279.49 71.9653 280.147 71.9653ZM282.349 74.5261H281.299C281.12 74.8931 280.787 75.1834 280.19 75.1834C279.473 75.1834 278.918 74.7139 278.85 73.9371H282.443C282.469 73.7749 282.477 73.6213 282.477 73.4591C282.477 72.0763 281.53 71.1458 280.19 71.1458C278.798 71.1458 277.842 72.0933 277.842 73.5701C277.842 75.0468 278.841 76.0028 280.19 76.0028C281.342 76.0028 282.085 75.3455 282.349 74.5261Z" fill="#1F1F1F"/>
<path d="M287.916 73.5701C287.916 72.0933 286.858 71.1458 285.518 71.1458C284.178 71.1458 283.119 72.0933 283.119 73.5701C283.119 75.0468 284.135 76.0028 285.475 76.0028C286.824 76.0028 287.916 75.0468 287.916 73.5701ZM284.109 73.5701C284.109 72.5031 284.767 71.9909 285.501 71.9909C286.226 71.9909 286.918 72.5031 286.918 73.5701C286.918 74.6371 286.201 75.1578 285.475 75.1578C284.741 75.1578 284.109 74.6371 284.109 73.5701Z" fill="#1F1F1F"/>
<path d="M289.852 73.4506C289.852 72.4519 290.295 72.1531 291.012 72.1531H291.26V71.1458C290.594 71.1458 290.125 71.4361 289.852 71.9056V71.2227H288.878V75.926H289.852V73.4506Z" fill="#1F1F1F"/>
<path d="M291.83 73.553C291.83 75.0041 292.812 76.0028 294.049 76.0028C294.818 76.0028 295.381 75.6443 295.68 75.2175V75.926H296.661V69.6094H295.68V71.8799C295.321 71.4361 294.673 71.1458 294.058 71.1458C292.812 71.1458 291.83 72.1019 291.83 73.553ZM295.68 73.5701C295.68 74.5858 294.988 75.1578 294.254 75.1578C293.529 75.1578 292.829 74.5688 292.829 73.553C292.829 72.5372 293.529 71.9909 294.254 71.9909C294.988 71.9909 295.68 72.5628 295.68 73.5701Z" fill="#1F1F1F"/>
<path d="M299.92 71.9653C300.645 71.9653 301.217 72.4262 301.234 73.1518H298.631C298.733 72.4092 299.263 71.9653 299.92 71.9653ZM302.122 74.5261H301.072C300.893 74.8931 300.56 75.1834 299.963 75.1834C299.246 75.1834 298.691 74.7139 298.622 73.9371H302.216C302.242 73.7749 302.25 73.6213 302.25 73.4591C302.25 72.0763 301.303 71.1458 299.963 71.1458C298.571 71.1458 297.615 72.0933 297.615 73.5701C297.615 75.0468 298.614 76.0028 299.963 76.0028C301.115 76.0028 301.858 75.3455 302.122 74.5261Z" fill="#1F1F1F"/>
<path d="M304.181 73.4506C304.181 72.4519 304.625 72.1531 305.342 72.1531H305.589V71.1458C304.924 71.1458 304.454 71.4361 304.181 71.9056V71.2227H303.208V75.926H304.181V73.4506Z" fill="#1F1F1F"/>
<path d="M18.3047 65.7761C18.3047 63.0823 20.4885 60.8984 23.1824 60.8984H37.8338C40.5277 60.8984 42.7115 63.0823 42.7115 65.7761V80.3541C42.7115 83.048 40.5277 85.2318 37.8338 85.2318H23.1824C20.4885 85.2318 18.3047 83.048 18.3047 80.3541V65.7761Z" fill="#2D70AE"/>
<rect x="37.8281" y="56.0234" width="9.76271" height="9.73333" rx="4.86667" fill="#EFA929"/>
<path d="M44.5686 60.4961H43.5968V58.3063C43.5968 57.7954 43.3107 57.6919 42.9616 58.0752L42.71 58.3519L40.581 60.6938C40.2885 61.0132 40.4111 61.2747 40.8514 61.2747H41.8232V63.4645C41.8232 63.9755 42.1093 64.0789 42.4584 63.6957L42.71 63.4189L44.8391 61.077C45.1315 60.7577 45.0089 60.4961 44.5686 60.4961Z" fill="white"/>
<g clip-path="url(#clip1_3799_4593)">
<path opacity="0.4" d="M35.2757 68.3073H36.0384C36.3554 68.3073 36.6104 68.5627 36.6104 68.8776C36.6104 69.1925 36.3554 69.4479 36.0384 69.4479H35.2757V70.2083C35.2757 70.5244 35.0207 70.7786 34.7037 70.7786C34.3867 70.7786 34.1316 70.5244 34.1316 70.2083V69.4479H33.3689C33.0519 69.4479 32.7969 69.1925 32.7969 68.8776C32.7969 68.5627 33.0519 68.3073 33.3689 68.3073H34.1316V67.5469C34.1316 67.232 34.3867 66.9766 34.7037 66.9766C35.0207 66.9766 35.2757 67.232 35.2757 67.5469V68.3073Z" fill="white"/>
<path d="M29.9478 70.1386C30.303 69.9746 30.7129 69.9746 31.0681 70.1386L36.2783 72.5387C36.4809 72.6313 36.6096 72.8333 36.6096 73.0353C36.6096 73.2777 36.4809 73.4797 36.2783 73.5747L31.0681 75.9748C30.7129 76.1388 30.303 76.1388 29.9478 75.9748L24.7383 73.5747C24.5359 73.4797 24.4062 73.2777 24.4062 73.0353C24.4062 72.8333 24.5358 72.6313 24.7383 72.5387L29.9478 70.1386ZM36.2783 75.5803C36.4809 75.673 36.6096 75.875 36.6096 76.077C36.6096 76.3194 36.4809 76.5213 36.2783 76.6164L31.0681 79.0165C30.7129 79.1804 30.303 79.1804 29.9478 79.0165L24.7383 76.6164C24.5359 76.5213 24.4062 76.3194 24.4062 76.077C24.4062 75.875 24.5358 75.673 24.7383 75.5803L26.0063 74.9958L29.6284 76.6639C30.1862 76.9229 30.8297 76.9229 31.3874 76.6639L35.0103 74.9958L36.2783 75.5803Z" fill="white"/>
</g>
<path d="M50.6719 75.9729H51.645V71.9097L53.4631 75.9729H54.1375L55.9471 71.9097V75.9729H56.9202V70.0404H55.8788L53.8046 74.6925L51.7218 70.0404H50.6719V75.9729Z" fill="#1F1F1F"/>
<path d="M57.8748 73.5999C57.8748 75.051 58.8565 76.0497 60.0771 76.0497C60.8624 76.0497 61.4258 75.6741 61.7246 75.2729V75.9729H62.7062V71.2695H61.7246V71.9524C61.4343 71.5683 60.888 71.1927 60.0942 71.1927C58.8565 71.1927 57.8748 72.1488 57.8748 73.5999ZM61.7246 73.6169C61.7246 74.6327 61.0331 75.2046 60.299 75.2046C59.5735 75.2046 58.8735 74.6156 58.8735 73.5999C58.8735 72.5841 59.5735 72.0378 60.299 72.0378C61.0331 72.0378 61.7246 72.6097 61.7246 73.6169Z" fill="#1F1F1F"/>
<path d="M64.138 74.6669C64.138 75.6229 64.6587 75.9729 65.4952 75.9729H66.2634V75.162H65.6659C65.2562 75.162 65.1196 75.0168 65.1196 74.6669V72.0634H66.2634V71.2695H65.1196V70.1001H64.138V71.2695H63.5831V72.0634H64.138V74.6669Z" fill="#1F1F1F"/>
<path d="M66.8359 73.6169C66.8359 75.0937 67.792 76.0497 69.1406 76.0497C70.293 76.0497 71.0442 75.4095 71.3088 74.4876H70.2589C70.0796 74.9742 69.7211 75.2302 69.1406 75.2302C68.3553 75.2302 67.8346 74.6498 67.8346 73.6169C67.8346 72.5926 68.3553 72.0122 69.1406 72.0122C69.7211 72.0122 70.0967 72.3024 70.2589 72.7548H71.3088C71.0442 71.7646 70.293 71.1927 69.1406 71.1927C67.792 71.1927 66.8359 72.1488 66.8359 73.6169Z" fill="#1F1F1F"/>
<path d="M72.2786 75.9729H73.2517V73.3438C73.2517 72.4817 73.7211 72.0378 74.4382 72.0378C75.1466 72.0378 75.6161 72.4817 75.6161 73.3438V75.9729H76.5807V73.1987C76.5807 71.8841 75.7612 71.1927 74.7113 71.1927C74.1052 71.1927 73.576 71.4232 73.2517 71.8159V69.6562H72.2786V75.9729Z" fill="#1F1F1F"/>
<path d="M129.039 65.6433C129.039 62.9494 131.223 60.7656 133.917 60.7656H148.568C151.262 60.7656 153.446 62.9494 153.446 65.6433V80.2213C153.446 82.9151 151.262 85.099 148.568 85.099H133.917C131.223 85.099 129.039 82.9151 129.039 80.2213V65.6433Z" fill="#2D9DA6"/>
<g clip-path="url(#clip2_3799_4593)">
<path d="M136.669 78.2526C136.248 78.2526 135.906 77.9128 135.906 77.4922C135.906 77.0716 136.248 76.7318 136.669 76.7318H145.822C146.243 76.7318 146.584 77.0716 146.584 77.4922C146.584 77.9128 146.243 78.2526 145.822 78.2526H136.669ZM136.669 72.1693C136.248 72.1693 135.906 71.8295 135.906 71.4089C135.906 70.9882 136.248 70.6484 136.669 70.6484H145.822C146.243 70.6484 146.584 70.9882 146.584 71.4089C146.584 71.8295 146.243 72.1693 145.822 72.1693H136.669Z" fill="white"/>
<path opacity="0.4" d="M136.669 75.2214C136.248 75.2214 135.906 74.8815 135.906 74.4609C135.906 74.0403 136.248 73.7005 136.669 73.7005H142.008C142.43 73.7005 142.771 74.0403 142.771 74.4609C142.771 74.8815 142.43 75.2214 142.008 75.2214H136.669ZM136.669 69.138C136.248 69.138 135.906 68.7975 135.906 68.3776C135.906 67.9577 136.248 67.6172 136.669 67.6172H142.008C142.43 67.6172 142.771 67.9577 142.771 68.3776C142.771 68.7975 142.43 69.138 142.008 69.138H136.669Z" fill="white"/>
</g>
<path d="M167.146 72.8688C167.146 71.0933 165.806 69.8385 164.116 69.8385C162.443 69.8385 161.086 71.0933 161.086 72.8688C161.086 74.6528 162.443 75.9076 164.116 75.9076C165.806 75.9076 167.146 74.6528 167.146 72.8688ZM162.085 72.8688C162.085 71.5287 162.938 70.6921 164.116 70.6921C165.294 70.6921 166.148 71.5287 166.148 72.8688C166.148 74.209 165.294 75.0626 164.116 75.0626C162.938 75.0626 162.085 74.209 162.085 72.8688Z" fill="#1F1F1F"/>
<path d="M169.077 71.836V71.1445H168.104V78.0843H169.077V75.165C169.384 75.532 169.939 75.9247 170.716 75.9247C171.954 75.9247 172.927 74.926 172.927 73.4749C172.927 72.0238 171.954 71.0677 170.716 71.0677C169.948 71.0677 169.376 71.4433 169.077 71.836ZM171.937 73.4749C171.937 74.4906 171.237 75.0796 170.503 75.0796C169.777 75.0796 169.077 74.5077 169.077 73.4919C169.077 72.4847 169.777 71.9128 170.503 71.9128C171.237 71.9128 171.937 72.4591 171.937 73.4749Z" fill="#1F1F1F"/>
<path d="M175.87 71.8872C176.595 71.8872 177.167 72.3481 177.184 73.0737H174.581C174.683 72.331 175.212 71.8872 175.87 71.8872ZM178.072 74.448H177.022C176.843 74.815 176.51 75.1052 175.912 75.1052C175.195 75.1052 174.64 74.6358 174.572 73.859H178.166C178.191 73.6968 178.2 73.5432 178.2 73.381C178.2 71.9981 177.252 71.0677 175.912 71.0677C174.521 71.0677 173.565 72.0152 173.565 73.4919C173.565 74.9687 174.564 75.9247 175.912 75.9247C177.065 75.9247 177.807 75.2674 178.072 74.448Z" fill="#1F1F1F"/>
<path d="M182.495 75.8479H183.46V73.0737C183.46 71.7591 182.632 71.0677 181.53 71.0677C180.967 71.0677 180.446 71.2982 180.131 71.6823V71.1445H179.157V75.8479H180.131V73.2188C180.131 72.3567 180.6 71.9128 181.317 71.9128C182.026 71.9128 182.495 72.3567 182.495 73.2188V75.8479Z" fill="#1F1F1F"/>
<path d="M184.803 73.1676H188.312V72.3481H184.803V73.1676Z" fill="#1F1F1F"/>
<path d="M191.674 71.8872C192.4 71.8872 192.972 72.3481 192.989 73.0737H190.385C190.488 72.331 191.017 71.8872 191.674 71.8872ZM193.877 74.448H192.827C192.647 74.815 192.315 75.1052 191.717 75.1052C191 75.1052 190.445 74.6358 190.377 73.859H193.971C193.996 73.6968 194.005 73.5432 194.005 73.381C194.005 71.9981 193.057 71.0677 191.717 71.0677C190.326 71.0677 189.37 72.0152 189.37 73.4919C189.37 74.9687 190.368 75.9247 191.717 75.9247C192.869 75.9247 193.612 75.2674 193.877 74.448Z" fill="#1F1F1F"/>
<path d="M198.3 75.8479H199.264V73.0737C199.264 71.7591 198.436 71.0677 197.335 71.0677C196.772 71.0677 196.251 71.2982 195.935 71.6823V71.1445H194.962V75.8479H195.935V73.2188C195.935 72.3567 196.405 71.9128 197.122 71.9128C197.83 71.9128 198.3 72.3567 198.3 73.2188V75.8479Z" fill="#1F1F1F"/>
<path d="M200.181 73.4749C200.181 74.926 201.163 75.9247 202.401 75.9247C203.169 75.9247 203.732 75.5662 204.031 75.1394V75.8479H205.013V69.5312H204.031V71.8018C203.673 71.3579 203.024 71.0677 202.409 71.0677C201.163 71.0677 200.181 72.0238 200.181 73.4749ZM204.031 73.4919C204.031 74.5077 203.34 75.0796 202.606 75.0796C201.88 75.0796 201.18 74.4906 201.18 73.4749C201.18 72.4591 201.88 71.9128 202.606 71.9128C203.34 71.9128 204.031 72.4847 204.031 73.4919Z" fill="#1F1F1F"/>
<path d="M208.271 71.8872C208.997 71.8872 209.569 72.3481 209.586 73.0737H206.982C207.085 72.331 207.614 71.8872 208.271 71.8872ZM210.473 74.448H209.424C209.244 74.815 208.911 75.1052 208.314 75.1052C207.597 75.1052 207.042 74.6358 206.974 73.859H210.567C210.593 73.6968 210.602 73.5432 210.602 73.381C210.602 71.9981 209.654 71.0677 208.314 71.0677C206.922 71.0677 205.966 72.0152 205.966 73.4919C205.966 74.9687 206.965 75.9247 208.314 75.9247C209.466 75.9247 210.209 75.2674 210.473 74.448Z" fill="#1F1F1F"/>
<path d="M211.235 73.4749C211.235 74.926 212.216 75.9247 213.454 75.9247C214.222 75.9247 214.786 75.5662 215.084 75.1394V75.8479H216.066V69.5312H215.084V71.8018C214.726 71.3579 214.077 71.0677 213.463 71.0677C212.216 71.0677 211.235 72.0238 211.235 73.4749ZM215.084 73.4919C215.084 74.5077 214.393 75.0796 213.659 75.0796C212.933 75.0796 212.233 74.4906 212.233 73.4749C212.233 72.4591 212.933 71.9128 213.659 71.9128C214.393 71.9128 215.084 72.4847 215.084 73.4919Z" fill="#1F1F1F"/>
<path d="M18.3047 23.0261C18.3047 20.3323 20.4885 18.1484 23.1824 18.1484H37.8338C40.5277 18.1484 42.7115 20.3323 42.7115 23.0261V37.6041C42.7115 40.298 40.5277 42.4818 37.8338 42.4818H23.1824C20.4885 42.4818 18.3047 40.298 18.3047 37.6041V23.0261Z" fill="#2D9DA6"/>
<rect x="37.8281" y="13.2812" width="9.76271" height="9.73333" rx="4.86667" fill="#EFA929"/>
<path d="M44.5686 17.7617H43.5968V15.5719C43.5968 15.061 43.3107 14.9576 42.9616 15.3408L42.71 15.6176L40.581 17.9594C40.2885 18.2788 40.4111 18.5403 40.8514 18.5403H41.8232V20.7302C41.8232 21.2411 42.1093 21.3445 42.4584 20.9613L42.71 20.6845L44.8391 18.3427C45.1315 18.0233 45.0089 17.7617 44.5686 17.7617Z" fill="white"/>
<g clip-path="url(#clip3_3799_4593)">
<path d="M30.5069 32.599C31.7708 32.599 32.795 31.5779 32.795 30.3177V26.5156C32.795 25.2555 31.7708 24.2344 30.5069 24.2344C29.2429 24.2344 28.2188 25.2555 28.2188 26.5156V30.3177C28.2188 31.5771 29.2222 32.599 30.5069 32.599Z" fill="white"/>
<path opacity="0.4" d="M34.7023 29.3614V30.3333C34.7023 32.4461 33.1226 34.1948 31.0794 34.4729V35.276H32.0328C32.4666 35.276 32.8156 35.637 32.7946 36.0738C32.786 36.2693 32.6096 36.4167 32.4142 36.4167H28.6006C28.4047 36.4167 28.2295 36.269 28.2202 36.0738C28.1993 35.6372 28.5482 35.276 28.982 35.276H29.9354V34.4645C27.8372 34.1758 26.3125 32.2771 26.3125 30.1456V29.3614C26.3125 29.0668 26.5687 28.8125 26.8845 28.8125C27.2003 28.8125 27.4566 29.0668 27.4566 29.3614L27.4351 30.2121C27.4351 31.7855 28.7141 33.2681 30.2881 33.3679C32.0805 33.4796 33.5583 32.0752 33.5583 30.3333V29.3614C33.5583 29.0668 33.8133 28.8125 34.1303 28.8125C34.4473 28.8125 34.7023 29.0668 34.7023 29.3614Z" fill="white"/>
</g>
<path d="M54.6737 33.2368H55.698L53.5725 27.2957H52.4458L50.3203 33.2368H51.3361L51.7629 32.0247H54.2469L54.6737 33.2368ZM53.9737 31.2308H52.036L53.0091 28.4737L53.9737 31.2308Z" fill="#1F1F1F"/>
<path d="M60.8816 28.5334H59.9085V31.154C59.9085 32.0161 59.439 32.46 58.722 32.46C58.0135 32.46 57.544 32.0161 57.544 31.154V28.5334H56.5794V31.2991C56.5794 32.6136 57.416 33.305 58.5171 33.305C59.0719 33.305 59.6012 33.0746 59.9085 32.6734V33.2368H60.8816V28.5334Z" fill="#1F1F1F"/>
<path d="M61.8411 30.8638C61.8411 32.3149 62.8228 33.3136 64.0605 33.3136C64.8287 33.3136 65.3921 32.9551 65.6909 32.5283V33.2368H66.6725V26.9201H65.6909V29.1907C65.3324 28.7468 64.6836 28.4566 64.069 28.4566C62.8228 28.4566 61.8411 29.4126 61.8411 30.8638ZM65.6909 30.8808C65.6909 31.8966 64.9994 32.4685 64.2654 32.4685C63.5398 32.4685 62.8398 31.8795 62.8398 30.8638C62.8398 29.848 63.5398 29.3017 64.2654 29.3017C64.9994 29.3017 65.6909 29.8736 65.6909 30.8808Z" fill="#1F1F1F"/>
<path d="M67.9506 33.2368H68.9237V28.5334H67.9506V33.2368ZM68.4457 27.9103C68.7872 27.9103 69.0603 27.6372 69.0603 27.2872C69.0603 26.9372 68.7872 26.6641 68.4457 26.6641C68.0957 26.6641 67.8226 26.9372 67.8226 27.2872C67.8226 27.6372 68.0957 27.9103 68.4457 27.9103Z" fill="#1F1F1F"/>
<path d="M74.6827 30.8808C74.6827 29.4041 73.6242 28.4566 72.2841 28.4566C70.944 28.4566 69.8855 29.4041 69.8855 30.8808C69.8855 32.3576 70.9013 33.3136 72.2414 33.3136C73.5901 33.3136 74.6827 32.3576 74.6827 30.8808ZM70.8757 30.8808C70.8757 29.8138 71.5329 29.3017 72.267 29.3017C72.9926 29.3017 73.684 29.8138 73.684 30.8808C73.684 31.9478 72.967 32.4685 72.2414 32.4685C71.5073 32.4685 70.8757 31.9478 70.8757 30.8808Z" fill="#1F1F1F"/>
<path d="M81.0118 29.0797C81.0118 29.6687 80.6704 30.087 79.9107 30.087H78.8351V28.0981H79.9107C80.6704 28.0981 81.0118 28.4822 81.0118 29.0797ZM77.862 27.3043V33.2368H78.8351V30.8638H79.5778L80.9435 33.2368H82.1044L80.6362 30.7784C81.6349 30.5309 82.0105 29.7797 82.0105 29.0797C82.0105 28.1152 81.3191 27.3043 79.9107 27.3043H77.862Z" fill="#1F1F1F"/>
<path d="M85.2357 29.2761C85.9613 29.2761 86.5332 29.737 86.5502 30.4626H83.9468C84.0492 29.7199 84.5784 29.2761 85.2357 29.2761ZM87.438 31.8369H86.3881C86.2088 32.2039 85.8759 32.4941 85.2784 32.4941C84.5614 32.4941 84.0065 32.0247 83.9382 31.2479H87.5319C87.5575 31.0857 87.566 30.932 87.566 30.7699C87.566 29.387 86.6185 28.4566 85.2784 28.4566C83.887 28.4566 82.931 29.4041 82.931 30.8808C82.931 32.3576 83.9297 33.3136 85.2784 33.3136C86.4307 33.3136 87.1734 32.6563 87.438 31.8369Z" fill="#1F1F1F"/>
<path d="M92.0319 31.9222C91.9807 30.2236 89.326 30.7528 89.326 29.8053C89.326 29.4895 89.5992 29.2761 90.1199 29.2761C90.6491 29.2761 90.9649 29.5578 90.9991 29.9675H91.9722C91.921 29.0285 91.221 28.4566 90.154 28.4566C89.0443 28.4566 88.3444 29.0627 88.3444 29.8138C88.3444 31.5381 91.0759 31.0089 91.0759 31.9308C91.0759 32.2551 90.7771 32.4941 90.2138 32.4941C89.676 32.4941 89.309 32.1783 89.2748 31.7942H88.2676C88.3103 32.6478 89.1041 33.3136 90.2308 33.3136C91.3405 33.3136 92.0319 32.7161 92.0319 31.9222Z" fill="#1F1F1F"/>
<path d="M94.0565 29.2249V28.5334H93.0834V35.4732H94.0565V32.5539C94.3638 32.9209 94.9186 33.3136 95.6954 33.3136C96.9331 33.3136 97.9062 32.3149 97.9062 30.8638C97.9062 29.4126 96.9331 28.4566 95.6954 28.4566C94.9272 28.4566 94.3553 28.8322 94.0565 29.2249ZM96.916 30.8638C96.916 31.8795 96.2161 32.4685 95.482 32.4685C94.7564 32.4685 94.0565 31.8966 94.0565 30.8808C94.0565 29.8736 94.7564 29.3017 95.482 29.3017C96.2161 29.3017 96.916 29.848 96.916 30.8638Z" fill="#1F1F1F"/>
<path d="M103.35 30.8808C103.35 29.4041 102.291 28.4566 100.951 28.4566C99.6111 28.4566 98.5527 29.4041 98.5527 30.8808C98.5527 32.3576 99.5685 33.3136 100.909 33.3136C102.257 33.3136 103.35 32.3576 103.35 30.8808ZM99.5429 30.8808C99.5429 29.8138 100.2 29.3017 100.934 29.3017C101.66 29.3017 102.351 29.8138 102.351 30.8808C102.351 31.9478 101.634 32.4685 100.909 32.4685C100.175 32.4685 99.5429 31.9478 99.5429 30.8808Z" fill="#1F1F1F"/>
<path d="M107.649 33.2368H108.614V30.4626C108.614 29.148 107.786 28.4566 106.685 28.4566C106.121 28.4566 105.601 28.6871 105.285 29.0712V28.5334H104.312V33.2368H105.285V30.6077C105.285 29.7455 105.754 29.3017 106.471 29.3017C107.18 29.3017 107.649 29.7455 107.649 30.6077V33.2368Z" fill="#1F1F1F"/>
<path d="M113.364 31.9222C113.312 30.2236 110.658 30.7528 110.658 29.8053C110.658 29.4895 110.931 29.2761 111.451 29.2761C111.981 29.2761 112.297 29.5578 112.331 29.9675H113.304C113.253 29.0285 112.553 28.4566 111.486 28.4566C110.376 28.4566 109.676 29.0627 109.676 29.8138C109.676 31.5381 112.407 31.0089 112.407 31.9308C112.407 32.2551 112.109 32.4941 111.545 32.4941C111.008 32.4941 110.641 32.1783 110.606 31.7942H109.599C109.642 32.6478 110.436 33.3136 111.562 33.3136C112.672 33.3136 113.364 32.7161 113.364 31.9222Z" fill="#1F1F1F"/>
<path d="M116.395 29.2761C117.121 29.2761 117.693 29.737 117.71 30.4626H115.106C115.209 29.7199 115.738 29.2761 116.395 29.2761ZM118.598 31.8369H117.548C117.368 32.2039 117.036 32.4941 116.438 32.4941C115.721 32.4941 115.166 32.0247 115.098 31.2479H118.692C118.717 31.0857 118.726 30.932 118.726 30.7699C118.726 29.387 117.778 28.4566 116.438 28.4566C115.047 28.4566 114.091 29.4041 114.091 30.8808C114.091 32.3576 115.089 33.3136 116.438 33.3136C117.59 33.3136 118.333 32.6563 118.598 31.8369Z" fill="#1F1F1F"/>
<path d="M240.719 108.354C240.719 105.66 242.903 103.477 245.596 103.477H260.248C262.942 103.477 265.126 105.66 265.126 108.354V122.932C265.126 125.626 262.942 127.81 260.248 127.81H245.596C242.903 127.81 240.719 125.626 240.719 122.932V108.354Z" fill="#2D9DA6"/>
<g clip-path="url(#clip4_3799_4593)">
<path d="M255.523 110.654C256.053 110.126 256.913 110.126 257.443 110.654L257.939 111.149C258.468 111.677 258.468 112.533 257.939 113.061L256.744 114.253L254.328 111.845L255.523 110.654ZM256.265 114.73L250.864 120.112C250.722 120.254 250.547 120.357 250.352 120.414L248.148 121.042C247.971 121.092 247.779 121.042 247.649 120.894C247.518 120.782 247.469 120.592 247.52 120.414L248.149 118.217C248.205 118.023 248.308 117.848 248.451 117.706L253.85 112.323L256.265 114.73Z" fill="white"/>
<path opacity="0.4" d="M249.937 115.022L247.168 112.262C246.704 111.8 246.704 111.051 247.168 110.589C247.631 110.127 248.382 110.127 248.846 110.589L251.615 113.349L249.937 115.022ZM255.801 116.38C256.869 116.611 257.668 117.559 257.668 118.691C257.668 118.774 257.664 118.856 257.655 118.936C257.617 119.306 257.871 119.705 258.244 119.705H258.346C258.721 119.705 259.024 120.007 259.024 120.381C259.024 120.755 258.721 121.057 258.346 121.057H255.295C254.159 121.057 253.208 120.261 252.977 119.196L255.801 116.38Z" fill="white"/>
</g>
<path d="M275.024 112.633H273.086V118.565H275.024C276.927 118.565 278.173 117.447 278.173 115.62C278.173 113.785 276.927 112.633 275.024 112.633ZM274.059 117.771V113.427H275.024C276.424 113.427 277.175 114.263 277.175 115.62C277.175 116.969 276.424 117.771 275.024 117.771H274.059Z" fill="#1F1F1F"/>
<path d="M280.111 116.09C280.111 115.091 280.555 114.792 281.272 114.792H281.519V113.785C280.854 113.785 280.384 114.075 280.111 114.545V113.862H279.138V118.565H280.111V116.09Z" fill="#1F1F1F"/>
<path d="M282.089 116.192C282.089 117.643 283.071 118.642 284.292 118.642C285.077 118.642 285.64 118.267 285.939 117.865V118.565H286.921V113.862H285.939V114.545C285.649 114.161 285.103 113.785 284.309 113.785C283.071 113.785 282.089 114.741 282.089 116.192ZM285.939 116.209C285.939 117.225 285.248 117.797 284.514 117.797C283.788 117.797 283.088 117.208 283.088 116.192C283.088 115.177 283.788 114.63 284.514 114.63C285.248 114.63 285.939 115.202 285.939 116.209Z" fill="#1F1F1F"/>
<path d="M289.112 118.565H290.137L291.084 115.091L292.032 118.565H293.056L294.516 113.862H293.56L292.586 117.626L291.63 113.862H290.615L289.616 117.643L288.634 113.862H287.644L289.112 118.565Z" fill="#1F1F1F"/>
<path d="M240.406 23.1277C240.406 20.4338 242.59 18.25 245.284 18.25H259.935C262.629 18.25 264.813 20.4338 264.813 23.1277V37.7056C264.813 40.3995 262.629 42.5833 259.935 42.5833H245.284C242.59 42.5833 240.406 40.3995 240.406 37.7056V23.1277Z" fill="#2D9DA6"/>
<rect x="259.93" y="13.3828" width="9.76271" height="9.73333" rx="4.86667" fill="#EFA929"/>
<path d="M266.67 17.8555H265.698V15.6657C265.698 15.1547 265.412 15.0513 265.063 15.4345L264.812 15.7113L262.683 18.0532C262.39 18.3725 262.513 18.6341 262.953 18.6341H263.925V20.8239C263.925 21.3349 264.211 21.4383 264.56 21.055L264.812 20.7783L266.941 18.4364C267.233 18.1171 267.11 17.8555 266.67 17.8555Z" fill="white"/>
<g clip-path="url(#clip5_3799_4593)">
<path opacity="0.4" d="M258.71 27.7045V33.1309C258.71 33.6695 258.092 33.984 257.643 33.6756L255.32 32.0811V28.7564L257.642 27.1603C258.094 26.8517 258.71 27.168 258.71 27.7045Z" fill="white"/>
<path d="M254.643 27.3655V33.4488C254.643 34.0087 254.188 34.4627 253.626 34.4627H247.525C246.963 34.4627 246.508 34.0087 246.508 33.4488V27.3655C246.508 26.8055 246.963 26.3516 247.525 26.3516H253.626C254.188 26.3516 254.643 26.8055 254.643 27.3655Z" fill="white"/>
</g>
<path d="M275.097 32.3396L273.338 27.4058H272.297L274.533 33.3383H275.66L277.888 27.4058H276.864L275.097 32.3396Z" fill="#1F1F1F"/>
<path d="M278.702 33.3383H279.675V28.635H278.702V33.3383ZM279.197 28.0119C279.538 28.0119 279.811 27.7387 279.811 27.3888C279.811 27.0388 279.538 26.7656 279.197 26.7656C278.847 26.7656 278.574 27.0388 278.574 27.3888C278.574 27.7387 278.847 28.0119 279.197 28.0119Z" fill="#1F1F1F"/>
<path d="M280.628 30.9653C280.628 32.4164 281.61 33.4151 282.847 33.4151C283.616 33.4151 284.179 33.0566 284.478 32.6298V33.3383H285.459V27.0217H284.478V29.2923C284.119 28.8484 283.471 28.5582 282.856 28.5582C281.61 28.5582 280.628 29.5142 280.628 30.9653ZM284.478 30.9824C284.478 31.9982 283.786 32.5701 283.052 32.5701C282.327 32.5701 281.627 31.9811 281.627 30.9653C281.627 29.9495 282.327 29.4032 283.052 29.4032C283.786 29.4032 284.478 29.9752 284.478 30.9824Z" fill="#1F1F1F"/>
<path d="M288.718 29.3776C289.443 29.3776 290.015 29.8386 290.032 30.5641H287.429C287.531 29.8215 288.061 29.3776 288.718 29.3776ZM290.92 31.9384H289.87C289.691 32.3055 289.358 32.5957 288.761 32.5957C288.044 32.5957 287.489 32.1262 287.42 31.3494H291.014C291.04 31.1873 291.048 31.0336 291.048 30.8714C291.048 29.4886 290.101 28.5582 288.761 28.5582C287.369 28.5582 286.413 29.5057 286.413 30.9824C286.413 32.4591 287.412 33.4151 288.761 33.4151C289.913 33.4151 290.656 32.7579 290.92 31.9384Z" fill="#1F1F1F"/>
<path d="M296.487 30.9824C296.487 29.5057 295.429 28.5582 294.089 28.5582C292.748 28.5582 291.69 29.5057 291.69 30.9824C291.69 32.4591 292.706 33.4151 294.046 33.4151C295.395 33.4151 296.487 32.4591 296.487 30.9824ZM292.68 30.9824C292.68 29.9154 293.337 29.4032 294.072 29.4032C294.797 29.4032 295.489 29.9154 295.489 30.9824C295.489 32.0494 294.771 32.5701 294.046 32.5701C293.312 32.5701 292.68 32.0494 292.68 30.9824Z" fill="#1F1F1F"/>
<path d="M302.816 29.1813C302.816 29.7703 302.475 30.1885 301.715 30.1885H300.64V28.1997H301.715C302.475 28.1997 302.816 28.5838 302.816 29.1813ZM299.667 27.4058V33.3383H300.64V30.9653H301.382L302.748 33.3383H303.909L302.441 30.88C303.439 30.6324 303.815 29.8813 303.815 29.1813C303.815 28.2167 303.124 27.4058 301.715 27.4058H299.667Z" fill="#1F1F1F"/>
<path d="M307.04 29.3776C307.766 29.3776 308.338 29.8386 308.355 30.5641H305.751C305.854 29.8215 306.383 29.3776 307.04 29.3776ZM309.242 31.9384H308.193C308.013 32.3055 307.68 32.5957 307.083 32.5957C306.366 32.5957 305.811 32.1262 305.743 31.3494H309.336C309.362 31.1873 309.371 31.0336 309.371 30.8714C309.371 29.4886 308.423 28.5582 307.083 28.5582C305.692 28.5582 304.735 29.5057 304.735 30.9824C304.735 32.4591 305.734 33.4151 307.083 33.4151C308.235 33.4151 308.978 32.7579 309.242 31.9384Z" fill="#1F1F1F"/>
<path d="M313.836 32.0238C313.785 30.3251 311.131 30.8544 311.131 29.9069C311.131 29.591 311.404 29.3776 311.924 29.3776C312.454 29.3776 312.769 29.6593 312.804 30.069H313.777C313.725 29.1301 313.026 28.5582 311.959 28.5582C310.849 28.5582 310.149 29.1642 310.149 29.9154C310.149 31.6397 312.88 31.1104 312.88 32.0323C312.88 32.3567 312.582 32.5957 312.018 32.5957C311.481 32.5957 311.113 32.2799 311.079 31.8957H310.072C310.115 32.7493 310.909 33.4151 312.035 33.4151C313.145 33.4151 313.836 32.8176 313.836 32.0238Z" fill="#1F1F1F"/>
<path d="M315.861 29.3264V28.635H314.888V35.5747H315.861V32.6554C316.168 33.0225 316.723 33.4151 317.5 33.4151C318.738 33.4151 319.711 32.4164 319.711 30.9653C319.711 29.5142 318.738 28.5582 317.5 28.5582C316.732 28.5582 316.16 28.9338 315.861 29.3264ZM318.721 30.9653C318.721 31.9811 318.021 32.5701 317.287 32.5701C316.561 32.5701 315.861 31.9982 315.861 30.9824C315.861 29.9752 316.561 29.4032 317.287 29.4032C318.021 29.4032 318.721 29.9495 318.721 30.9653Z" fill="#1F1F1F"/>
<path d="M325.154 30.9824C325.154 29.5057 324.096 28.5582 322.756 28.5582C321.416 28.5582 320.357 29.5057 320.357 30.9824C320.357 32.4591 321.373 33.4151 322.713 33.4151C324.062 33.4151 325.154 32.4591 325.154 30.9824ZM321.347 30.9824C321.347 29.9154 322.005 29.4032 322.739 29.4032C323.464 29.4032 324.156 29.9154 324.156 30.9824C324.156 32.0494 323.439 32.5701 322.713 32.5701C321.979 32.5701 321.347 32.0494 321.347 30.9824Z" fill="#1F1F1F"/>
<path d="M329.454 33.3383H330.419V30.5641C330.419 29.2496 329.591 28.5582 328.489 28.5582C327.926 28.5582 327.405 28.7887 327.089 29.1728V28.635H326.116V33.3383H327.089V30.7092C327.089 29.8471 327.559 29.4032 328.276 29.4032C328.984 29.4032 329.454 29.8471 329.454 30.7092V33.3383Z" fill="#1F1F1F"/>
<path d="M335.168 32.0238C335.117 30.3251 332.462 30.8544 332.462 29.9069C332.462 29.591 332.735 29.3776 333.256 29.3776C333.785 29.3776 334.101 29.6593 334.135 30.069H335.108C335.057 29.1301 334.357 28.5582 333.29 28.5582C332.18 28.5582 331.48 29.1642 331.48 29.9154C331.48 31.6397 334.212 31.1104 334.212 32.0323C334.212 32.3567 333.913 32.5957 333.35 32.5957C332.812 32.5957 332.445 32.2799 332.411 31.8957H331.404C331.446 32.7493 332.24 33.4151 333.367 33.4151C334.477 33.4151 335.168 32.8176 335.168 32.0238Z" fill="#1F1F1F"/>
<path d="M338.2 29.3776C338.925 29.3776 339.497 29.8386 339.514 30.5641H336.911C337.013 29.8215 337.543 29.3776 338.2 29.3776ZM340.402 31.9384H339.352C339.173 32.3055 338.84 32.5957 338.243 32.5957C337.525 32.5957 336.971 32.1262 336.902 31.3494H340.496C340.522 31.1873 340.53 31.0336 340.53 30.8714C340.53 29.4886 339.583 28.5582 338.243 28.5582C336.851 28.5582 335.895 29.5057 335.895 30.9824C335.895 32.4591 336.894 33.4151 338.243 33.4151C339.395 33.4151 340.138 32.7579 340.402 31.9384Z" fill="#1F1F1F"/>
<path d="M129.359 23.0808C129.359 20.3869 131.543 18.2031 134.237 18.2031H148.888C151.582 18.2031 153.766 20.3869 153.766 23.0808V37.6588C153.766 40.3526 151.582 42.5365 148.888 42.5365H134.237C131.543 42.5365 129.359 40.3526 129.359 37.6588V23.0808Z" fill="#9A4292"/>
<g clip-path="url(#clip6_3799_4593)">
<path d="M146.967 24.9766H136.12C135.765 24.9766 135.461 25.2793 135.461 25.6335C135.461 25.9877 135.765 26.3096 136.12 26.3096H146.967C147.361 26.3286 147.664 26.0259 147.664 25.6527C147.664 25.2795 147.361 24.9766 146.967 24.9766ZM142.241 33.1468V32.4128H140.885V33.1468L139.289 34.7374C139.157 34.8694 139.156 35.085 139.289 35.2171L139.766 35.6932C139.899 35.8252 140.116 35.8252 140.248 35.6931L141.563 34.3825L142.857 35.6923C142.99 35.8243 143.206 35.8244 143.339 35.6923L143.816 35.2162C143.949 35.0842 143.948 34.8686 143.816 34.7365L142.241 33.1468Z" fill="white"/>
<path opacity="0.4" d="M146.314 32.4034H136.822C136.449 32.4034 136.144 32.1014 136.144 31.7275L136.125 26.3203H137.5V31.0518H145.636V26.3203H146.972L146.992 31.7275C146.992 32.1014 146.686 32.4034 146.314 32.4034Z" fill="white"/>
</g>
<path d="M165.727 31.6099C165.727 29.4417 162.585 30.2783 162.585 28.9381C162.585 28.3662 163.021 28.093 163.584 28.1101C164.199 28.1272 164.549 28.4942 164.583 28.8954H165.658C165.573 27.8796 164.771 27.2821 163.635 27.2821C162.423 27.2821 161.595 27.9309 161.595 28.9722C161.595 31.1575 164.745 30.227 164.745 31.6611C164.745 32.1647 164.361 32.5317 163.678 32.5317C163.004 32.5317 162.662 32.1391 162.62 31.6525H161.578C161.578 32.7025 162.491 33.3512 163.678 33.3512C165.001 33.3512 165.727 32.4976 165.727 31.6099Z" fill="#1F1F1F"/>
<path d="M166.875 33.2914H167.848V26.9748H166.875V33.2914Z" fill="#1F1F1F"/>
<path d="M169.126 33.2914H170.099V28.5881H169.126V33.2914ZM169.621 27.965C169.962 27.965 170.235 27.6919 170.235 27.3419C170.235 26.9919 169.962 26.7188 169.621 26.7188C169.271 26.7188 168.997 26.9919 168.997 27.3419C168.997 27.6919 169.271 27.965 169.621 27.965Z" fill="#1F1F1F"/>
<path d="M171.052 30.9184C171.052 32.3696 172.033 33.3683 173.271 33.3683C174.039 33.3683 174.603 33.0098 174.902 32.583V33.2914H175.883V26.9748H174.902V29.2454C174.543 28.8015 173.894 28.5113 173.28 28.5113C172.033 28.5113 171.052 29.4673 171.052 30.9184ZM174.902 30.9355C174.902 31.9513 174.21 32.5232 173.476 32.5232C172.751 32.5232 172.051 31.9342 172.051 30.9184C172.051 29.9027 172.751 29.3564 173.476 29.3564C174.21 29.3564 174.902 29.9283 174.902 30.9355Z" fill="#1F1F1F"/>
<path d="M179.142 29.3308C179.867 29.3308 180.439 29.7917 180.456 30.5173H177.853C177.955 29.7746 178.484 29.3308 179.142 29.3308ZM181.344 31.8915H180.294C180.115 32.2586 179.782 32.5488 179.184 32.5488C178.467 32.5488 177.913 32.0793 177.844 31.3026H181.438C181.463 31.1404 181.472 30.9867 181.472 30.8246C181.472 29.4417 180.525 28.5113 179.184 28.5113C177.793 28.5113 176.837 29.4588 176.837 30.9355C176.837 32.4122 177.836 33.3683 179.184 33.3683C180.337 33.3683 181.079 32.711 181.344 31.8915Z" fill="#1F1F1F"/>
<path d="M18.3047 108.409C18.3047 105.715 20.4885 103.531 23.1824 103.531H37.8338C40.5277 103.531 42.7115 105.715 42.7115 108.409V122.987C42.7115 125.681 40.5277 127.865 37.8338 127.865H23.1824C20.4885 127.865 18.3047 125.681 18.3047 122.987V108.409Z" fill="#9A4292"/>
<g clip-path="url(#clip7_3799_4593)">
<path d="M29.7413 113.424C29.7413 113.004 30.0821 112.664 30.504 112.664C30.9258 112.664 31.2667 113.004 31.2667 113.424V117.987C31.2667 118.408 30.9258 118.747 30.504 118.747C30.0821 118.747 29.7413 118.408 29.7413 117.987V113.424ZM27.4531 115.706C27.4531 115.285 27.794 114.945 28.2158 114.945C28.6377 114.945 28.9785 115.285 28.9785 115.706V117.987C28.9785 118.408 28.6377 118.747 28.2158 118.747C27.794 118.747 27.4531 118.408 27.4531 117.987V115.706ZM33.5548 117.227V117.987C33.5548 118.408 33.214 118.747 32.7921 118.747C32.3702 118.747 32.0294 118.408 32.0294 117.987V117.227C32.0294 116.806 32.3702 116.466 32.7921 116.466C33.214 116.466 33.5548 116.806 33.5548 117.227Z" fill="white"/>
<path opacity="0.4" d="M34.3244 110.383C35.1658 110.383 35.8498 111.064 35.8498 111.904V119.508C35.8498 120.347 35.1658 121.029 34.3244 121.029H26.6973C25.8547 121.029 25.1719 120.347 25.1719 119.508V111.904C25.1719 111.064 25.8547 110.383 26.6973 110.383H34.3244ZM28.2227 114.945C27.8008 114.945 27.46 115.285 27.46 115.706V117.987C27.46 118.408 27.8008 118.747 28.2227 118.747C28.6446 118.747 28.9854 118.408 28.9854 117.987V115.706C28.9854 115.285 28.6446 114.945 28.2227 114.945ZM29.7481 117.987C29.7481 118.408 30.089 118.747 30.5109 118.747C30.9327 118.747 31.2736 118.408 31.2736 117.987V113.424C31.2736 113.004 30.9327 112.664 30.5109 112.664C30.089 112.664 29.7481 113.004 29.7481 113.424V117.987ZM32.799 116.466C32.3771 116.466 32.0363 116.806 32.0363 117.227V117.987C32.0363 118.408 32.3771 118.747 32.799 118.747C33.2209 118.747 33.5617 118.408 33.5617 117.987V117.227C33.5617 116.806 33.2209 116.466 32.799 116.466Z" fill="white"/>
</g>
<path d="M51.645 115.413V113.475H52.7205C53.4802 113.475 53.8216 113.833 53.8216 114.448C53.8216 115.045 53.4802 115.413 52.7205 115.413H51.645ZM54.8204 114.448C54.8204 113.483 54.1289 112.681 52.7205 112.681H50.6719V118.613H51.645V116.206H52.7205C54.2655 116.206 54.8204 115.293 54.8204 114.448Z" fill="#1F1F1F"/>
<path d="M60.2298 116.258C60.2298 114.781 59.1714 113.833 57.8312 113.833C56.4911 113.833 55.4326 114.781 55.4326 116.258C55.4326 117.734 56.4484 118.69 57.7885 118.69C59.1372 118.69 60.2298 117.734 60.2298 116.258ZM56.4228 116.258C56.4228 115.191 57.0801 114.678 57.8141 114.678C58.5397 114.678 59.2311 115.191 59.2311 116.258C59.2311 117.325 58.5141 117.845 57.7885 117.845C57.0544 117.845 56.4228 117.325 56.4228 116.258Z" fill="#1F1F1F"/>
<path d="M61.1918 118.613H62.1649V112.297H61.1918V118.613Z" fill="#1F1F1F"/>
<path d="M63.4425 118.613H64.4156V112.297H63.4425V118.613Z" fill="#1F1F1F"/>
<path d="M129.305 108.136C129.305 105.442 131.489 103.258 134.182 103.258H148.834C151.528 103.258 153.711 105.442 153.711 108.136V122.713C153.711 125.407 151.528 127.591 148.834 127.591H134.182C131.489 127.591 129.305 125.407 129.305 122.713V108.136Z" fill="#2D70AE"/>
<g clip-path="url(#clip8_3799_4593)">
<path d="M144.27 113.444C144.529 113.703 144.529 114.126 144.27 114.385L141.219 117.427C140.959 117.686 140.535 117.686 140.275 117.427L138.75 115.906C138.49 115.647 138.49 115.224 138.75 114.965C139.009 114.706 139.434 114.706 139.693 114.965L140.747 116.015L143.326 113.444C143.586 113.185 144.01 113.185 144.27 113.444Z" fill="white"/>
<path opacity="0.4" d="M135.406 115.427C135.406 112.067 138.138 109.344 141.508 109.344C144.878 109.344 147.61 112.067 147.61 115.427C147.61 118.787 144.878 121.51 141.508 121.51C138.138 121.51 135.406 118.787 135.406 115.427ZM144.268 114.377C144.528 114.118 144.528 113.695 144.268 113.436C144.008 113.177 143.584 113.177 143.324 113.436L140.745 116.007L139.692 114.957C139.432 114.698 139.008 114.698 138.748 114.957C138.488 115.216 138.488 115.639 138.748 115.898L140.273 117.418C140.533 117.677 140.957 117.677 141.217 117.418L144.268 114.377Z" fill="white"/>
</g>
<path d="M161.672 118.346H162.645V114.283L164.463 118.346H165.137L166.947 114.283V118.346H167.92V112.414H166.879L164.805 117.066L162.722 112.414H161.672V118.346Z" fill="#1F1F1F"/>
<path d="M173.459 113.643H172.486V116.263C172.486 117.125 172.016 117.569 171.299 117.569C170.591 117.569 170.121 117.125 170.121 116.263V113.643H169.157V116.408C169.157 117.723 169.993 118.414 171.094 118.414C171.649 118.414 172.178 118.184 172.486 117.783V118.346H173.459V113.643Z" fill="#1F1F1F"/>
<path d="M174.743 118.346H175.716V112.03H174.743V118.346Z" fill="#1F1F1F"/>
<path d="M177.147 117.04C177.147 117.996 177.668 118.346 178.504 118.346H179.272V117.535H178.675C178.265 117.535 178.129 117.39 178.129 117.04V114.437H179.272V113.643H178.129V112.473H177.147V113.643H176.592V114.437H177.147V117.04Z" fill="#1F1F1F"/>
<path d="M180.169 118.346H181.142V113.643H180.169V118.346ZM180.664 113.02C181.006 113.02 181.279 112.747 181.279 112.397C181.279 112.047 181.006 111.773 180.664 111.773C180.314 111.773 180.041 112.047 180.041 112.397C180.041 112.747 180.314 113.02 180.664 113.02Z" fill="#1F1F1F"/>
<path d="M183.393 114.334V113.643H182.42V120.583H183.393V117.663C183.7 118.03 184.255 118.423 185.032 118.423C186.27 118.423 187.243 117.424 187.243 115.973C187.243 114.522 186.27 113.566 185.032 113.566C184.264 113.566 183.692 113.942 183.393 114.334ZM186.253 115.973C186.253 116.989 185.553 117.578 184.819 117.578C184.093 117.578 183.393 117.006 183.393 115.99C183.393 114.983 184.093 114.411 184.819 114.411C185.553 114.411 186.253 114.957 186.253 115.973Z" fill="#1F1F1F"/>
<path d="M188.205 118.346H189.178V112.03H188.205V118.346Z" fill="#1F1F1F"/>
<path d="M192.436 114.385C193.162 114.385 193.734 114.846 193.751 115.572H191.147C191.25 114.829 191.779 114.385 192.436 114.385ZM194.638 116.946H193.588C193.409 117.313 193.076 117.604 192.479 117.604C191.762 117.604 191.207 117.134 191.139 116.357H194.732C194.758 116.195 194.766 116.041 194.766 115.879C194.766 114.496 193.819 113.566 192.479 113.566C191.087 113.566 190.131 114.513 190.131 115.99C190.131 117.467 191.13 118.423 192.479 118.423C193.631 118.423 194.374 117.766 194.638 116.946Z" fill="#1F1F1F"/>
<path d="M195.826 115.666H199.335V114.846H195.826V115.666Z" fill="#1F1F1F"/>
<path d="M200.393 115.99C200.393 117.467 201.349 118.423 202.698 118.423C203.85 118.423 204.601 117.783 204.866 116.861H203.816C203.637 117.347 203.278 117.604 202.698 117.604C201.912 117.604 201.392 117.023 201.392 115.99C201.392 114.966 201.912 114.385 202.698 114.385C203.278 114.385 203.654 114.676 203.816 115.128H204.866C204.601 114.138 203.85 113.566 202.698 113.566C201.349 113.566 200.393 114.522 200.393 115.99Z" fill="#1F1F1F"/>
<path d="M205.836 118.346H206.809V115.717C206.809 114.855 207.278 114.411 207.995 114.411C208.704 114.411 209.173 114.855 209.173 115.717V118.346H210.138V115.572C210.138 114.257 209.318 113.566 208.268 113.566C207.662 113.566 207.133 113.796 206.809 114.189V112.03H205.836V118.346Z" fill="#1F1F1F"/>
<path d="M215.86 115.99C215.86 114.513 214.802 113.566 213.462 113.566C212.122 113.566 211.063 114.513 211.063 115.99C211.063 117.467 212.079 118.423 213.419 118.423C214.768 118.423 215.86 117.467 215.86 115.99ZM212.053 115.99C212.053 114.923 212.711 114.411 213.445 114.411C214.17 114.411 214.862 114.923 214.862 115.99C214.862 117.057 214.145 117.578 213.419 117.578C212.685 117.578 212.053 117.057 212.053 115.99Z" fill="#1F1F1F"/>
<path d="M216.822 118.346H217.795V113.643H216.822V118.346ZM217.317 113.02C217.659 113.02 217.932 112.747 217.932 112.397C217.932 112.047 217.659 111.773 217.317 111.773C216.967 111.773 216.694 112.047 216.694 112.397C216.694 112.747 216.967 113.02 217.317 113.02Z" fill="#1F1F1F"/>
<path d="M218.749 115.99C218.749 117.467 219.705 118.423 221.053 118.423C222.206 118.423 222.957 117.783 223.221 116.861H222.172C221.992 117.347 221.634 117.604 221.053 117.604C220.268 117.604 219.747 117.023 219.747 115.99C219.747 114.966 220.268 114.385 221.053 114.385C221.634 114.385 222.009 114.676 222.172 115.128H223.221C222.957 114.138 222.206 113.566 221.053 113.566C219.705 113.566 218.749 114.522 218.749 115.99Z" fill="#1F1F1F"/>
<path d="M226.172 114.385C226.897 114.385 227.469 114.846 227.486 115.572H224.883C224.985 114.829 225.514 114.385 226.172 114.385ZM228.374 116.946H227.324C227.145 117.313 226.812 117.604 226.214 117.604C225.497 117.604 224.942 117.134 224.874 116.357H228.468C228.493 116.195 228.502 116.041 228.502 115.879C228.502 114.496 227.554 113.566 226.214 113.566C224.823 113.566 223.867 114.513 223.867 115.99C223.867 117.467 224.866 118.423 226.214 118.423C227.367 118.423 228.109 117.766 228.374 116.946Z" fill="#1F1F1F"/>
<defs>
<clipPath id="clip0_3799_4593">
<rect width="12.2034" height="12.1667" fill="white" transform="translate(246.508 66.9297)"/>
</clipPath>
<clipPath id="clip1_3799_4593">
<rect width="12.2034" height="12.1667" fill="white" transform="translate(24.4062 66.9766)"/>
</clipPath>
<clipPath id="clip2_3799_4593">
<rect width="12.2034" height="12.1667" fill="white" transform="translate(135.141 66.8516)"/>
</clipPath>
<clipPath id="clip3_3799_4593">
<rect width="12.2034" height="12.1667" fill="white" transform="translate(24.4062 24.2344)"/>
</clipPath>
<clipPath id="clip4_3799_4593">
<rect width="12.2034" height="12.1667" fill="white" transform="translate(246.82 109.562)"/>
</clipPath>
<clipPath id="clip5_3799_4593">
<rect width="12.2034" height="12.1667" fill="white" transform="translate(246.508 24.3359)"/>
</clipPath>
<clipPath id="clip6_3799_4593">
<rect width="12.2034" height="12.1667" fill="white" transform="translate(135.461 24.2891)"/>
</clipPath>
<clipPath id="clip7_3799_4593">
<rect width="12.2034" height="12.1667" fill="white" transform="translate(24.4062 109.617)"/>
</clipPath>
<clipPath id="clip8_3799_4593">
<rect width="12.2034" height="12.1667" fill="white" transform="translate(135.406 109.344)"/>
</clipPath>
</defs>
</svg>
