<svg width="32" height="32" viewBox="0 0 32 32" fill="none" xmlns="http://www.w3.org/2000/svg">
<g clip-path="url(#clip0_2877_1800)">
<path d="M30.3254 6.46932C31.173 6.83321 31.6453 7.74141 31.4576 8.63751C31.276 9.53966 30.4828 10.1875 29.5625 10.1875V10.6719C29.5625 11.4772 28.9146 12.125 28.1094 12.125H3.89063C3.08838 12.125 2.4375 11.4772 2.4375 10.6719V10.1875C1.51779 10.133 0.724691 9.53966 0.539756 8.63751C0.35481 7.74141 0.828953 6.83321 1.67461 6.46932L15.2371 0.656642C15.7215 0.447786 16.2785 0.447786 16.7629 0.656642L30.3254 6.46932ZM16 8.25001C17.0717 8.25001 17.9375 7.38419 17.9375 6.31251C17.9375 5.24264 17.0717 4.37501 16 4.37501C14.9283 4.37501 14.0625 5.24264 14.0625 6.31251C14.0625 7.38419 14.9283 8.25001 16 8.25001Z" fill="#2E70AD"/>
<path opacity="0.4" d="M8.19568 25.6875H10.6176V14.0625H14.4926V25.6875H17.4533V14.0625H21.3283V25.6875H23.7502V14.0625H27.6252V25.9479C27.6615 25.966 27.6978 25.9357 27.7342 26.0145L30.6404 27.952C31.3488 28.4242 31.6637 29.3082 31.4154 30.1256C31.1672 30.943 30.4164 31.5 29.5627 31.5H2.38318C1.58396 31.5 0.830699 30.943 0.583304 30.1256C0.335849 29.3082 0.652509 28.4242 1.36297 27.952L4.26922 26.0145C4.30373 25.9357 4.33945 25.966 4.32068 25.9479V14.0625H8.19568V25.6875Z" fill="#2E70AD"/>
</g>
<defs>
<clipPath id="clip0_2877_1800">
<rect width="32" height="32" fill="white"/>
</clipPath>
</defs>
</svg>
