<svg width="48" height="48" viewBox="0 0 48 48" fill="none" xmlns="http://www.w3.org/2000/svg">
<path d="M44.1985 3.60156H3.66521C2.33758 3.60156 1.20312 4.7434 1.20312 6.07966C1.20312 7.41593 2.33758 8.63028 3.66521 8.63028H44.1985C45.671 8.70199 46.8031 7.56015 46.8031 6.15217C46.8031 4.7442 45.671 3.60156 44.1985 3.60156ZM26.5365 34.4224V31.6535H21.4698V34.4224L15.5085 40.4225C15.0137 40.9205 15.0121 41.734 15.5069 42.2321L17.2913 44.0281C17.7861 44.5262 18.596 44.526 19.0908 44.0279L24.0031 39.0838L28.8402 44.0249C29.335 44.523 30.1449 44.5231 30.6397 44.025L32.4241 42.229C32.9189 41.7309 32.9172 40.9174 32.4224 40.4194L26.5365 34.4224Z" fill="#2D9DA6"/>
<path opacity="0.4" d="M41.7353 31.6585H6.26865C4.87373 31.6585 3.73531 30.519 3.73531 29.1087L3.66406 8.71094H8.80198V26.5596H39.202V8.71094H44.1974L44.2687 29.1087C44.2687 30.519 43.1286 31.6585 41.7353 31.6585Z" fill="#2D9DA6"/>
</svg>
