<svg width="48" height="48" viewBox="0 0 48 48" fill="none" xmlns="http://www.w3.org/2000/svg">
<g clip-path="url(#clip0_4126_5371)">
<path d="M23.8981 20.0566L20.9281 22.5616C20.2519 23.133 19.4259 23.4113 18.6054 23.4113C17.5824 23.4113 16.5676 22.978 15.8551 22.1371C14.5681 20.5591 14.7631 18.3541 16.2781 17.0716L24.5506 10.2541L21.0706 9.60156C16.7731 9.62931 12.6631 11.3626 9.61813 14.3941L7.20312 14.4241V31.1941L10.9719 31.1873L17.7594 37.3238C19.8219 39 22.8406 38.6813 24.5094 36.6303L25.8684 37.7733C27.0594 38.7468 28.8219 38.5593 29.7969 37.3705L32.1504 34.4755L32.5534 34.8129C33.5847 35.6371 35.0944 35.4872 35.9284 34.4568L36.6438 33.5733C37.4748 32.5465 37.3177 31.036 36.2917 30.2035L23.8981 20.0566ZM40.8031 14.4316V31.2016C40.8031 32.5216 41.8719 33.6053 43.1356 33.6053L48.0031 33.6016V14.4391L40.8031 14.4316ZM44.4031 31.2016C43.7469 31.2016 43.2031 30.6576 43.2031 30.0023C43.2031 29.3372 43.7469 28.8031 44.4031 28.8031C45.0594 28.8031 45.6031 29.3374 45.6031 30.0023C45.6031 30.6616 45.0631 31.2016 44.4031 31.2016Z" fill="#9A4292"/>
<path opacity="0.4" d="M36 14.419C32.9265 11.3493 31.155 9.61002 26.805 9.61002C26.0183 9.61002 25.3103 9.56396 24.54 10.2525L16.275 17.074C14.76 18.3565 14.565 20.5615 15.855 22.144C16.5675 22.9848 17.5823 23.4183 18.6053 23.4183C19.4258 23.4183 20.2515 23.1396 20.928 22.5685L23.8958 20.059L36.2933 30.2065C36.6203 30.4717 36.8275 30.8195 36.9741 31.1845L40.8 31.1365V14.434L36 14.419ZM0 33.5965L4.8 33.5995C6.13125 33.5995 7.2 32.527 7.2 31.1973V14.4265H0V33.5965ZM3.6 28.8115C4.25625 28.8115 4.8 29.3458 4.8 30.0108C4.8 30.6659 4.25625 31.21 3.6 31.21C2.94375 31.21 2.4 30.664 2.4 30.0115C2.4 29.344 2.94375 28.8115 3.6 28.8115Z" fill="#9A4292"/>
</g>
<defs>
<clipPath id="clip0_4126_5371">
<rect width="48" height="48" fill="white"/>
</clipPath>
</defs>
</svg>
