<svg width="48" height="48" viewBox="0 0 48 48" fill="none" xmlns="http://www.w3.org/2000/svg">
<path opacity="0.4" d="M44.7983 35.9862C44.9448 35.2047 44.9448 34.3947 44.7983 33.6132L46.2361 32.7754C46.4036 32.6848 46.4803 32.4894 46.4245 32.301C46.0476 31.1002 45.4052 30.0045 44.5682 29.0977C44.4427 28.9582 44.2332 28.9233 44.0658 29.021L42.628 29.8513C42.0208 29.3347 41.323 28.9303 40.5693 28.6648V26.9337C40.5693 26.7451 40.4297 26.5777 40.2482 26.5427C39.0062 26.2635 37.7357 26.2705 36.5492 26.5427C36.3683 26.6412 36.2333 26.8137 36.2333 26.9337V28.6017C35.4796 28.867 34.7813 29.2716 34.1746 29.7882L32.7301 28.9579C32.5696 28.8602 32.3602 28.8951 32.2278 29.0347C31.39 29.9422 30.748 31.0379 30.3783 32.2379C30.3225 32.4263 30.3992 32.6217 30.5598 32.7124L31.9975 33.5501C31.8581 34.3316 31.8581 35.1409 31.9975 35.9231L30.5598 36.7609C30.3922 36.8515 30.3225 37.0471 30.3783 37.2355C30.7482 38.4362 31.39 39.5245 32.2278 40.4387C32.3602 40.5784 32.5628 40.6133 32.7301 40.5156L34.1746 39.6854C34.7816 40.2019 35.4796 40.6063 36.2333 40.8718V42.5399C36.2333 42.7284 36.3661 42.8958 36.5474 42.9307C37.7969 43.2099 39.0599 43.2029 40.2464 42.9307C40.4279 42.8958 40.5675 42.7284 40.5675 42.5399V40.8718C41.3212 40.6067 42.0195 40.202 42.6262 39.6854L44.064 40.5156C44.2246 40.6133 44.4409 40.5784 44.5664 40.4387C45.4042 39.5312 46.0462 38.4362 46.4227 37.2355C46.4785 37.0471 46.4019 36.8515 46.2343 36.7609L44.7983 35.9862ZM38.4008 37.2012C37.0756 37.2012 36.0008 36.1264 36.0008 34.8012C36.0008 33.4759 37.0756 32.4012 38.4008 32.4012C39.7261 32.4012 40.8008 33.4759 40.8008 34.8012C40.8008 36.1287 39.7283 37.2012 38.4008 37.2012Z" fill="#2D70AE"/>
<path d="M13.7925 20.9969C13.7925 20.5882 13.8662 20.1996 13.9132 19.8036C13.095 19.3544 12.195 19.1969 11.2425 19.1969H6.606C2.958 19.1969 0 22.3319 0 26.1944C0 26.9669 0.591525 27.5969 1.3215 27.5969H16.284C14.7525 25.8119 13.7925 23.5244 13.7925 20.9969ZM9.6 16.7969C12.9135 16.7969 15.6 14.1104 15.6 10.7969C15.6 7.48338 12.915 4.79688 9.6 4.79688C6.2865 4.79688 3.6 7.48338 3.6 10.7969C3.6 14.1104 6.2865 16.7969 9.6 16.7969ZM27.6 34.7969C27.6 33.5451 27.8549 32.3624 28.2464 31.2449C28.0725 31.2344 27.915 31.1969 27.7425 31.1969H20.2575C14.37 31.1969 9.6 35.6744 9.6 41.1944C9.6 42.3044 10.5525 43.1969 11.73 43.1969H31.6875C29.2125 41.2169 27.6 38.2094 27.6 34.7969ZM41.3925 19.1969H36.7545C35.7945 19.1969 34.8885 19.4247 34.065 19.8149C34.11 20.2094 34.185 20.5919 34.185 20.9969C34.185 22.6071 33.7631 24.1004 33.0863 25.4474C34.665 24.5519 36.4575 23.9969 38.4 23.9969C41.586 23.9969 44.4202 25.4024 46.395 27.5969H46.6767C47.4075 27.5969 48 26.9669 48 26.1944C48 22.3319 45.045 19.1969 41.3925 19.1969ZM38.4 16.7969C41.7135 16.7969 44.4 14.1104 44.4 10.7969C44.4 7.48338 41.715 4.79688 38.4 4.79688C35.0865 4.79688 32.4 7.48338 32.4 10.7969C32.4 14.1104 35.085 16.7969 38.4 16.7969ZM23.9925 13.1969C19.6868 13.1969 16.26 16.6889 16.26 20.9969C16.26 25.3049 19.7513 28.7969 23.9925 28.7969C28.2983 28.7969 31.725 25.3049 31.725 20.9969C31.785 16.6919 28.2975 13.1969 23.9925 13.1969Z" fill="#2D70AE"/>
</svg>
