<svg width="40" height="32" viewBox="0 0 40 32" fill="none" xmlns="http://www.w3.org/2000/svg">
<g clip-path="url(#clip0_2877_1726)">
<path d="M10.25 19.875C13.4809 19.875 16.1 17.2727 16.1 14.0625C16.1 10.8523 13.4809 8.25 10.25 8.25C6.96547 8.25 4.4 10.799 4.4 14.0625C4.4 17.2715 6.96547 19.875 10.25 19.875ZM12.2 21.8125H8.3C3.99233 21.8125 0.5 25.2824 0.5 29.5625C0.5 30.6324 1.37323 31.5 2.45 31.5H18.05C19.1268 31.5 20 30.6324 20 29.5625C20 25.2818 16.5083 21.8125 12.2 21.8125ZM14.15 4.375V7.39084C16.4717 8.73438 18.05 11.2047 18.05 14.0625C18.05 16.594 16.8227 18.7912 14.9276 20.2625C16.0573 20.5895 17.0872 21.1283 18.0073 21.8125H23.8994V18.9062C23.8994 18.3711 24.3359 17.9375 24.8744 17.9375H30.7244C31.2628 17.9375 31.6994 18.3711 31.6994 18.9062V21.8125H35.5994V4.375H14.15Z" fill="#2D9DA6"/>
<path opacity="0.4" d="M36.575 0.5H13.175C11.5602 0.5 10.25 1.84717 10.25 3.50494V6.3125C11.6772 6.3125 12.9983 6.72307 14.0952 7.39084V4.375H35.5452V21.8125H18.0073C19.3522 22.8103 20.4168 24.1436 21.1005 25.6875H36.5726C38.1898 25.6875 39.5 24.3434 39.5 22.6844V3.50494C39.5 1.84717 38.1898 0.5 36.575 0.5Z" fill="#2D9DA6"/>
</g>
<defs>
<clipPath id="clip0_2877_1726">
<rect width="40" height="32" fill="white"/>
</clipPath>
</defs>
</svg>
