<svg width="24" height="32" viewBox="0 0 24 32" fill="none" xmlns="http://www.w3.org/2000/svg">
<g clip-path="url(#clip0_3354_9175)">
<path d="M19.2062 18H16.8C16.4 18 16 18.4 16 18.8V27.2062C16 27.6 16.4 28 16.8 28H19.2062C19.6 28 20 27.6 20 27.2062V18.8C20 18.4 19.6 18 19.2062 18ZM7.20625 22H4.8C4.39875 22 4 22.4 4 22.8V27.2062C4 27.6 4.39875 28 4.79688 28H7.20312C7.6 28 8 27.6 8 27.2062V22.8C8 22.4 7.6 22 7.20625 22ZM13.2063 14H10.8C10.4 14 10 14.4 10 14.8V27.2062C10 27.6 10.4 28 10.8 28H13.2063C13.6 28 14 27.6 14 27.2062V14.8C14 14.4 13.6 14 13.2063 14ZM16 0V8H24L16 0Z" fill="#6C63FF"/>
<path opacity="0.4" d="M16 8V0H3C1.34312 0 0 1.34312 0 3V29C0 30.6562 1.34312 32 3 32H21C22.6569 32 24 30.6569 24 29V8H16ZM8 27.2062C8 27.6 7.6 28 7.20625 28H4.8C4.39875 28 4 27.6 4 27.2062V22.8C4 22.4 4.39875 22 4.79688 22H7.20312C7.6 22 8 22.4 8 22.8V27.2062ZM14 27.2062C14 27.6 13.6 28 13.2063 28H10.8C10.4 28 10 27.6 10 27.2062V14.8C10 14.4 10.4 14 10.8 14H13.2063C13.6 14 14 14.4 14 14.8V27.2062ZM20 27.2062C20 27.6 19.6 28 19.2062 28H16.8C16.4 28 16 27.6 16 27.2062V18.8C16 18.4 16.4 18 16.8 18H19.2062C19.6 18 20 18.4 20 18.8V27.2062Z" fill="#2D70AE"/>
</g>
<defs>
<clipPath id="clip0_3354_9175">
<rect width="24" height="32" fill="white"/>
</clipPath>
</defs>
</svg>
