<svg width="40" height="32" viewBox="0 0 40 32" fill="none" xmlns="http://www.w3.org/2000/svg">
<path d="M20.95 10.375H21.9C22.4225 10.375 22.85 10.7969 22.85 11.3125C22.85 11.8281 22.4225 12.25 21.9 12.25H20C19.4775 12.25 19.05 11.8281 19.05 11.3125V9.4375C19.05 8.92188 19.4775 8.5 20 8.5C20.5225 8.5 20.95 8.92188 20.95 9.4375V10.375ZM5.75 13.1875C5.75 12.6719 6.17512 12.25 6.7 12.25H8.6C9.1225 12.25 9.55 12.6719 9.55 13.1875V16.9375C9.55 17.4531 9.1225 17.875 8.6 17.875H6.7C6.17512 17.875 5.75 17.4531 5.75 16.9375V13.1875ZM30.45 13.1875C30.45 12.6719 30.8775 12.25 31.4 12.25H33.3C33.8225 12.25 34.25 12.6719 34.25 13.1875V16.9375C34.25 17.4531 33.8225 17.875 33.3 17.875H31.4C30.8775 17.875 30.45 17.4531 30.45 16.9375V13.1875ZM8.6 19.75C9.1225 19.75 9.55 20.1719 9.55 20.6875V24.4375C9.55 24.9531 9.1225 25.375 8.6 25.375H6.7C6.17512 25.375 5.75 24.9531 5.75 24.4375V20.6875C5.75 20.1719 6.17512 19.75 6.7 19.75H8.6ZM30.45 20.6875C30.45 20.1719 30.8775 19.75 31.4 19.75H33.3C33.8225 19.75 34.25 20.1719 34.25 20.6875V24.4375C34.25 24.9531 33.8225 25.375 33.3 25.375H31.4C30.8775 25.375 30.45 24.9531 30.45 24.4375V20.6875Z" fill="#9A4292"/>
<path opacity="0.4" d="M29.31 6.74569L36.7675 8.33007C38.0737 8.66991 39 9.80663 39 11.125V28.1875C39 29.7402 37.7234 31 36.15 31H3.85C2.27597 31 1 29.7402 1 28.1875V11.125C1 9.80663 1.92803 8.66991 3.23191 8.33007L10.69 6.74569L18.9431 1.31487C19.5309 0.895044 20.4156 0.895044 21.0569 1.31487L29.31 6.74569ZM16.2 31H23.8V25.375C23.8 23.3066 22.0959 21.625 20 21.625C17.9041 21.625 16.2 23.3066 16.2 25.375V31ZM6.7 12.25C6.17513 12.25 5.75 12.6719 5.75 13.1875V16.9375C5.75 17.4531 6.17513 17.875 6.7 17.875H8.6C9.1225 17.875 9.55 17.4531 9.55 16.9375V13.1875C9.55 12.6719 9.1225 12.25 8.6 12.25H6.7ZM30.45 16.9375C30.45 17.4531 30.8775 17.875 31.4 17.875H33.3C33.8225 17.875 34.25 17.4531 34.25 16.9375V13.1875C34.25 12.6719 33.8225 12.25 33.3 12.25H31.4C30.8775 12.25 30.45 12.6719 30.45 13.1875V16.9375ZM6.7 19.75C6.17513 19.75 5.75 20.1719 5.75 20.6875V24.4375C5.75 24.9531 6.17513 25.375 6.7 25.375H8.6C9.1225 25.375 9.55 24.9531 9.55 24.4375V20.6875C9.55 20.1719 9.1225 19.75 8.6 19.75H6.7ZM30.45 24.4375C30.45 24.9531 30.8775 25.375 31.4 25.375H33.3C33.8225 25.375 34.25 24.9531 34.25 24.4375V20.6875C34.25 20.1719 33.8225 19.75 33.3 19.75H31.4C30.8775 19.75 30.45 20.1719 30.45 20.6875V24.4375ZM20 16.4687C22.8856 16.4687 25.225 14.1601 25.225 11.3125C25.225 8.46483 22.8856 6.15624 20 6.15624C17.1144 6.15624 14.775 8.46483 14.775 11.3125C14.775 14.1601 17.1144 16.4687 20 16.4687Z" fill="#9A4292"/>
</svg>
